<svg width="147" height="107" viewBox="0 0 147 107" fill="none" xmlns="http://www.w3.org/2000/svg">
    <g filter="url(#filter0_i_1_9)">
        <path fill-rule="evenodd" clip-rule="evenodd" d="M74.0909 94H74.7276H78.0909L87.4497 67.6364H125.096L134.455 94H146.273L112.091 0.909088H104H100.455H74.0909H63H34.1821V10.9091H63V74.1818H62.0909L11.1818 0.909088H0.272736V94H11.5455V20.9091H12.4546L63.1818 94H63.4549H66.2727H74.0909ZM74.7276 70.974L96.7827 10.9091H74.7276V70.974ZM121.546 57.6364L106.636 15.6364H105.909L90.9996 57.6364H121.546ZM9.57259 106V97.2727H8.53281V104.142H8.44759L3.67486 97.2727H2.65213V106H3.70895V99.1477H3.79418L8.54986 106H9.57259ZM13.9673 97.2727V106H19.3025V105.062H15.0241V102.097H18.9616V101.159H15.0241V98.2102H19.2343V97.2727H13.9673ZM26.1805 100.903L23.9305 97.2727H22.6862L25.4987 101.636L22.6862 106H23.9305L26.1805 102.438H26.2487L28.4987 106H29.743L26.9987 101.636L29.743 97.2727H28.4987L26.2487 100.903H26.1805ZM32.9211 97.2727V98.2102H35.6654V106H36.7222V98.2102H39.4666V97.2727H32.9211ZM48.5553 97.2727V98.2102H51.2996V106H52.3565V98.2102H55.1008V97.2727H48.5553ZM59.0118 97.2727V106H64.347V105.062H60.0686V102.097H64.0061V101.159H60.0686V98.2102H64.2789V97.2727H59.0118ZM72.6143 98.4489C72.9779 98.6875 73.1853 99.0227 73.2364 99.4545H74.2591C74.2449 99.0142 74.1086 98.6207 73.8501 98.2741C73.5944 97.9276 73.2478 97.6548 72.8103 97.456C72.3728 97.2543 71.8728 97.1534 71.3103 97.1534C70.7535 97.1534 70.2492 97.2557 69.7975 97.4602C69.3486 97.6619 68.9907 97.946 68.7236 98.3125C68.4594 98.6761 68.3273 99.1023 68.3273 99.5909C68.3273 100.179 68.5262 100.655 68.9239 101.018C69.3216 101.382 69.8614 101.662 70.5432 101.858L71.6171 102.165C71.9239 102.25 72.2094 102.349 72.4736 102.463C72.7378 102.577 72.9509 102.724 73.1128 102.906C73.2748 103.088 73.3557 103.324 73.3557 103.614C73.3557 103.932 73.262 104.21 73.0745 104.449C72.887 104.685 72.6327 104.869 72.3117 105.003C71.9907 105.134 71.6285 105.199 71.2251 105.199C70.8785 105.199 70.5546 105.148 70.2535 105.045C69.9552 104.94 69.708 104.781 69.512 104.568C69.3188 104.352 69.208 104.08 69.1796 103.75H68.0887C68.1228 104.227 68.2691 104.646 68.5276 105.007C68.789 105.368 69.1469 105.649 69.6015 105.851C70.0589 106.053 70.6001 106.153 71.2251 106.153C71.8955 106.153 72.4651 106.041 72.9339 105.817C73.4055 105.592 73.7634 105.29 74.0077 104.909C74.2549 104.528 74.3785 104.102 74.3785 103.631C74.3785 103.222 74.2947 102.876 74.127 102.595C73.9594 102.314 73.7464 102.084 73.4878 101.905C73.2322 101.723 72.9637 101.58 72.6824 101.474C72.404 101.369 72.1512 101.287 71.9239 101.227L71.0376 100.989C70.8756 100.946 70.6981 100.891 70.5049 100.822C70.3117 100.751 70.127 100.662 69.9509 100.554C69.7748 100.443 69.6299 100.305 69.5163 100.141C69.4055 99.973 69.3501 99.7727 69.3501 99.5398C69.3501 99.2614 69.4296 99.0128 69.5887 98.794C69.7506 98.5753 69.9751 98.4034 70.262 98.2784C70.5518 98.1534 70.8898 98.0909 71.2762 98.0909C71.8046 98.0909 72.2506 98.2102 72.6143 98.4489ZM77.9188 97.2727V98.2102H80.6631V106H81.7199V98.2102H84.4642V97.2727H77.9188ZM89.4321 106V97.2727H88.3753V106H89.4321ZM100.751 106V97.2727H99.7117V104.142H99.6265L94.8538 97.2727H93.831V106H94.8879V99.1477H94.9731L99.7288 106H100.751ZM110.741 99.2287C110.895 99.456 111.018 99.7131 111.112 100H112.203C112.123 99.5767 111.979 99.1918 111.768 98.8452C111.558 98.4957 111.295 98.196 110.98 97.946C110.668 97.6932 110.311 97.4986 109.91 97.3622C109.513 97.223 109.084 97.1534 108.623 97.1534C108.064 97.1534 107.551 97.2571 107.085 97.4645C106.619 97.6719 106.216 97.9702 105.875 98.3594C105.534 98.7486 105.27 99.2202 105.082 99.7741C104.898 100.325 104.805 100.946 104.805 101.636C104.805 102.557 104.967 103.352 105.291 104.023C105.618 104.693 106.072 105.21 106.655 105.574C107.24 105.938 107.919 106.119 108.692 106.119C109.385 106.119 109.998 105.974 110.533 105.685C111.069 105.392 111.49 104.98 111.794 104.449C112.101 103.918 112.254 103.293 112.254 102.574V101.636H108.93V102.574H111.231C111.222 103.079 111.114 103.521 110.908 103.899C110.694 104.291 110.396 104.595 110.013 104.811C109.632 105.024 109.192 105.131 108.692 105.131C108.152 105.131 107.666 104.997 107.234 104.73C106.802 104.463 106.46 104.07 106.207 103.55C105.954 103.03 105.828 102.392 105.828 101.636C105.828 100.881 105.953 100.243 106.203 99.723C106.453 99.2031 106.79 98.8097 107.213 98.5426C107.636 98.2756 108.106 98.142 108.623 98.142C108.939 98.142 109.229 98.1847 109.493 98.2699C109.757 98.3551 109.993 98.4787 110.2 98.6406C110.41 98.8026 110.591 98.9986 110.741 99.2287ZM121.249 106H122.357L123.235 103.528H126.764L127.641 106H128.749L125.545 97.2727H124.454L121.249 106ZM126.431 102.591L125.033 98.6534H124.965L123.567 102.591H126.431ZM132.389 97.2727V106H133.445V102.812H135.354C136.033 102.812 136.59 102.689 137.025 102.442C137.46 102.192 137.781 101.857 137.988 101.436C138.198 101.016 138.303 100.548 138.303 100.034C138.303 99.5199 138.198 99.054 137.988 98.6364C137.778 98.2188 137.454 97.8878 137.016 97.6435C136.582 97.3963 136.022 97.2727 135.337 97.2727H132.389ZM133.445 101.875H135.32C135.789 101.875 136.166 101.794 136.45 101.632C136.734 101.47 136.94 101.251 137.068 100.976C137.198 100.697 137.264 100.384 137.264 100.034C137.264 99.6847 137.198 99.3722 137.068 99.0966C136.94 98.821 136.732 98.6051 136.445 98.4489C136.158 98.2898 135.778 98.2102 135.303 98.2102H133.445V101.875ZM143.343 106V97.2727H142.286V106H143.343Z" fill="#584675" fill-opacity="0.84"/>
        <path fill-rule="evenodd" clip-rule="evenodd" d="M74.0909 94H74.7276H78.0909L87.4497 67.6364H125.096L134.455 94H146.273L112.091 0.909088H104H100.455H74.0909H63H34.1821V10.9091H63V74.1818H62.0909L11.1818 0.909088H0.272736V94H11.5455V20.9091H12.4546L63.1818 94H63.4549H66.2727H74.0909ZM74.7276 70.974L96.7827 10.9091H74.7276V70.974ZM121.546 57.6364L106.636 15.6364H105.909L90.9996 57.6364H121.546ZM9.57259 106V97.2727H8.53281V104.142H8.44759L3.67486 97.2727H2.65213V106H3.70895V99.1477H3.79418L8.54986 106H9.57259ZM13.9673 97.2727V106H19.3025V105.062H15.0241V102.097H18.9616V101.159H15.0241V98.2102H19.2343V97.2727H13.9673ZM26.1805 100.903L23.9305 97.2727H22.6862L25.4987 101.636L22.6862 106H23.9305L26.1805 102.438H26.2487L28.4987 106H29.743L26.9987 101.636L29.743 97.2727H28.4987L26.2487 100.903H26.1805ZM32.9211 97.2727V98.2102H35.6654V106H36.7222V98.2102H39.4666V97.2727H32.9211ZM48.5553 97.2727V98.2102H51.2996V106H52.3565V98.2102H55.1008V97.2727H48.5553ZM59.0118 97.2727V106H64.347V105.062H60.0686V102.097H64.0061V101.159H60.0686V98.2102H64.2789V97.2727H59.0118ZM72.6143 98.4489C72.9779 98.6875 73.1853 99.0227 73.2364 99.4545H74.2591C74.2449 99.0142 74.1086 98.6207 73.8501 98.2741C73.5944 97.9276 73.2478 97.6548 72.8103 97.456C72.3728 97.2543 71.8728 97.1534 71.3103 97.1534C70.7535 97.1534 70.2492 97.2557 69.7975 97.4602C69.3486 97.6619 68.9907 97.946 68.7236 98.3125C68.4594 98.6761 68.3273 99.1023 68.3273 99.5909C68.3273 100.179 68.5262 100.655 68.9239 101.018C69.3216 101.382 69.8614 101.662 70.5432 101.858L71.6171 102.165C71.9239 102.25 72.2094 102.349 72.4736 102.463C72.7378 102.577 72.9509 102.724 73.1128 102.906C73.2748 103.088 73.3557 103.324 73.3557 103.614C73.3557 103.932 73.262 104.21 73.0745 104.449C72.887 104.685 72.6327 104.869 72.3117 105.003C71.9907 105.134 71.6285 105.199 71.2251 105.199C70.8785 105.199 70.5546 105.148 70.2535 105.045C69.9552 104.94 69.708 104.781 69.512 104.568C69.3188 104.352 69.208 104.08 69.1796 103.75H68.0887C68.1228 104.227 68.2691 104.646 68.5276 105.007C68.789 105.368 69.1469 105.649 69.6015 105.851C70.0589 106.053 70.6001 106.153 71.2251 106.153C71.8955 106.153 72.4651 106.041 72.9339 105.817C73.4055 105.592 73.7634 105.29 74.0077 104.909C74.2549 104.528 74.3785 104.102 74.3785 103.631C74.3785 103.222 74.2947 102.876 74.127 102.595C73.9594 102.314 73.7464 102.084 73.4878 101.905C73.2322 101.723 72.9637 101.58 72.6824 101.474C72.404 101.369 72.1512 101.287 71.9239 101.227L71.0376 100.989C70.8756 100.946 70.6981 100.891 70.5049 100.822C70.3117 100.751 70.127 100.662 69.9509 100.554C69.7748 100.443 69.6299 100.305 69.5163 100.141C69.4055 99.973 69.3501 99.7727 69.3501 99.5398C69.3501 99.2614 69.4296 99.0128 69.5887 98.794C69.7506 98.5753 69.9751 98.4034 70.262 98.2784C70.5518 98.1534 70.8898 98.0909 71.2762 98.0909C71.8046 98.0909 72.2506 98.2102 72.6143 98.4489ZM77.9188 97.2727V98.2102H80.6631V106H81.7199V98.2102H84.4642V97.2727H77.9188ZM89.4321 106V97.2727H88.3753V106H89.4321ZM100.751 106V97.2727H99.7117V104.142H99.6265L94.8538 97.2727H93.831V106H94.8879V99.1477H94.9731L99.7288 106H100.751ZM110.741 99.2287C110.895 99.456 111.018 99.7131 111.112 100H112.203C112.123 99.5767 111.979 99.1918 111.768 98.8452C111.558 98.4957 111.295 98.196 110.98 97.946C110.668 97.6932 110.311 97.4986 109.91 97.3622C109.513 97.223 109.084 97.1534 108.623 97.1534C108.064 97.1534 107.551 97.2571 107.085 97.4645C106.619 97.6719 106.216 97.9702 105.875 98.3594C105.534 98.7486 105.27 99.2202 105.082 99.7741C104.898 100.325 104.805 100.946 104.805 101.636C104.805 102.557 104.967 103.352 105.291 104.023C105.618 104.693 106.072 105.21 106.655 105.574C107.24 105.938 107.919 106.119 108.692 106.119C109.385 106.119 109.998 105.974 110.533 105.685C111.069 105.392 111.49 104.98 111.794 104.449C112.101 103.918 112.254 103.293 112.254 102.574V101.636H108.93V102.574H111.231C111.222 103.079 111.114 103.521 110.908 103.899C110.694 104.291 110.396 104.595 110.013 104.811C109.632 105.024 109.192 105.131 108.692 105.131C108.152 105.131 107.666 104.997 107.234 104.73C106.802 104.463 106.46 104.07 106.207 103.55C105.954 103.03 105.828 102.392 105.828 101.636C105.828 100.881 105.953 100.243 106.203 99.723C106.453 99.2031 106.79 98.8097 107.213 98.5426C107.636 98.2756 108.106 98.142 108.623 98.142C108.939 98.142 109.229 98.1847 109.493 98.2699C109.757 98.3551 109.993 98.4787 110.2 98.6406C110.41 98.8026 110.591 98.9986 110.741 99.2287ZM121.249 106H122.357L123.235 103.528H126.764L127.641 106H128.749L125.545 97.2727H124.454L121.249 106ZM126.431 102.591L125.033 98.6534H124.965L123.567 102.591H126.431ZM132.389 97.2727V106H133.445V102.812H135.354C136.033 102.812 136.59 102.689 137.025 102.442C137.46 102.192 137.781 101.857 137.988 101.436C138.198 101.016 138.303 100.548 138.303 100.034C138.303 99.5199 138.198 99.054 137.988 98.6364C137.778 98.2188 137.454 97.8878 137.016 97.6435C136.582 97.3963 136.022 97.2727 135.337 97.2727H132.389ZM133.445 101.875H135.32C135.789 101.875 136.166 101.794 136.45 101.632C136.734 101.47 136.94 101.251 137.068 100.976C137.198 100.697 137.264 100.384 137.264 100.034C137.264 99.6847 137.198 99.3722 137.068 99.0966C136.94 98.821 136.732 98.6051 136.445 98.4489C136.158 98.2898 135.778 98.2102 135.303 98.2102H133.445V101.875ZM143.343 106V97.2727H142.286V106H143.343Z" fill="#F10B0B" fill-opacity="0.23"/>
    </g>
    <defs>
        <filter id="filter0_i_1_9" x="0.272736" y="0.909088" width="146" height="109.244" filterUnits="userSpaceOnUse" color-interpolation-filters="sRGB">
            <feFlood flood-opacity="0" result="BackgroundImageFix"/>
            <feBlend mode="normal" in="SourceGraphic" in2="BackgroundImageFix" result="shape"/>
            <feColorMatrix in="SourceAlpha" type="matrix" values="0 0 0 0 0 0 0 0 0 0 0 0 0 0 0 0 0 0 127 0" result="hardAlpha"/>
            <feOffset dy="4"/>
            <feGaussianBlur stdDeviation="2"/>
            <feComposite in2="hardAlpha" operator="arithmetic" k2="-1" k3="1"/>
            <feColorMatrix type="matrix" values="0 0 0 0 0 0 0 0 0 0 0 0 0 0 0 0 0 0 0.25 0"/>
            <feBlend mode="normal" in2="shape" result="effect1_innerShadow_1_9"/>
        </filter>
    </defs>
</svg>
